HIERARCHY
ROOT Hips
{
	OFFSET -0.001795 -0.223333 0.028219
	CHANNELS 6 Xposition Yposition Zposition Zrotation Yrotation Xrotation 
	JOINT LeftUpLeg
	{
		OFFSET 0.069520 -0.091406 -0.006815
		CHANNELS 3 Zrotation Yrotation Xrotation
		JOINT LeftLeg
		{
			OFFSET 0.034277 -0.375199 -0.004496
			CHANNELS 3 Zrotation Yrotation Xrotation
			JOINT LeftFoot
			{
				OFFSET -0.013596 -0.397961 -0.043693
				CHANNELS 3 Zrotation Yrotation Xrotation
				JOINT LeftToe
				{
					OFFSET 0.026358 -0.055791 0.119288
					CHANNELS 3 Zrotation Yrotation Xrotation
					End Site
					{
						OFFSET 0.000000 0.000000 0.000000
					}
				}
			}
		}
	}
	JOINT RightUpLeg
	{
		OFFSET -0.067670 -0.090522 -0.004320
		CHANNELS 3 Zrotation Yrotation Xrotation
		JOINT RightLeg
		{
			OFFSET -0.038290 -0.382569 -0.008850
			CHANNELS 3 Zrotation Yrotation Xrotation
			JOINT RightFoot
			{
				OFFSET 0.015774 -0.398415 -0.042312
				CHANNELS 3 Zrotation Yrotation Xrotation
				JOINT RightToe
				{
					OFFSET -0.025372 -0.048144 0.123348
					CHANNELS 3 Zrotation Yrotation Xrotation
					End Site
					{
						OFFSET 0.000000 0.000000 0.000000
					}
				}
			}
		}
	}
	JOINT Spine
	{
		OFFSET -0.002533 0.108963 -0.026696
		CHANNELS 3 Zrotation Yrotation Xrotation
		JOINT Spine1
		{
			OFFSET 0.005487 0.135180 0.001092
			CHANNELS 3 Zrotation Yrotation Xrotation
			JOINT Spine2
			{
				OFFSET 0.001457 0.052922 0.025425
				CHANNELS 3 Zrotation Yrotation Xrotation
				JOINT Neck
				{
					OFFSET -0.002778 0.213870 -0.042857
					CHANNELS 3 Zrotation Yrotation Xrotation
					JOINT Head
					{
						OFFSET 0.005152 0.064970 0.051349
						CHANNELS 3 Zrotation Yrotation Xrotation
						End Site
						{
							OFFSET 0.000000 0.000000 0.000000
						}
					}
				}
				JOINT LeftShoulder
				{
					OFFSET 0.078845 0.121749 -0.034090
					CHANNELS 3 Zrotation Yrotation Xrotation
					JOINT LeftArm
					{
						OFFSET 0.090977 0.030469 -0.008868
						CHANNELS 3 Zrotation Yrotation Xrotation
						JOINT LeftForeArm
						{
							OFFSET 0.259612 -0.012772 -0.027456
							CHANNELS 3 Zrotation Yrotation Xrotation
							JOINT LeftHand
							{
								OFFSET 0.249234 0.008986 -0.001171
								CHANNELS 3 Zrotation Yrotation Xrotation
								End Site
								{
									OFFSET 0.000000 0.000000 0.000000
								}
							}
						}
					}
				}
				JOINT RightShoulder
				{
					OFFSET -0.081759 0.118833 -0.038615
					CHANNELS 3 Zrotation Yrotation Xrotation
					JOINT RightArm
					{
						OFFSET -0.096012 0.032551 -0.009143
						CHANNELS 3 Zrotation Yrotation Xrotation
						JOINT RightForeArm
						{
							OFFSET -0.253742 -0.013329 -0.021401
							CHANNELS 3 Zrotation Yrotation Xrotation
							JOINT RightHand
							{
								OFFSET -0.255298 0.007772 -0.005559
								CHANNELS 3 Zrotation Yrotation Xrotation
								End Site
								{
									OFFSET 0.000000 0.000000 0.000000
								}
							}
						}
					}
				}
			}
		}
	}
}
MOTION
Frames: 6
Frame Time: 0.050000
0.000000 0.941285 0.000000 -0.004013 1.143475 -0.946734 -4.155881 0.527630 3.806323 -0.466541 0.015508 1.138686 -1.673750 -4.138607 -0.934320 0.000000 0.000000 0.000000 -0.961504 1.830550 -20.014264 2.911202 0.115796 43.688854 -2.061391 -4.344157 -2.214470 0.000000 0.000000 0.000000 3.470328 -0.391693 5.251306 -0.345028 0.225262 -2.149853 -3.661309 0.868667 11.400904 6.757990 -2.320360 -20.265732 0.000000 0.000000 0.000000 -24.634922 -9.768584 2.996790 -43.995411 -5.300800 -3.720302 -4.863532 -33.933522 2.755175 0.000000 0.000000 0.000000 24.459181 2.054721 -0.173659 52.307654 0.604154 -5.643986 6.443948 29.853902 2.877937 0.000000 0.000000 0.000000 
0.000383 0.938684 0.028522 -0.768255 1.095788 -0.479912 -2.411632 0.740003 6.401270 -1.569093 0.181216 -0.603263 -2.036922 -4.457844 -0.133478 0.000000 0.000000 0.000000 -0.232220 2.316330 -23.830113 2.459808 0.258744 36.092617 -1.355154 -3.653446 0.507939 0.000000 0.000000 0.000000 4.041958 -0.390120 4.745471 0.237411 -0.043814 -2.096947 -4.598238 2.036430 11.683261 8.039462 -2.506501 -22.752992 0.000000 0.000000 0.000000 -23.529065 -9.526660 2.421680 -45.353264 -5.806375 -3.528897 -3.828994 -35.220009 2.434481 0.000000 0.000000 0.000000 23.140204 0.975552 -0.311711 54.815593 -0.019363 -6.255745 5.972189 30.719235 2.989057 0.000000 0.000000 0.000000 
0.000118 0.934015 0.059696 -0.775913 1.555792 0.038895 -2.531342 0.923840 7.985769 -0.879887 0.099081 -0.201309 -1.173773 -4.254433 -2.982720 0.000000 0.000000 0.000000 0.080244 2.482822 -25.135568 1.498806 0.405980 24.975265 -0.281292 -1.412345 1.481429 0.000000 0.000000 0.000000 4.468793 -0.383963 4.291261 -0.529178 0.340838 -3.293104 -4.215834 2.801223 12.879654 7.160474 -1.857754 -23.183421 0.000000 0.000000 0.000000 -23.841882 -10.481263 2.698666 -45.053145 -6.216005 -3.352447 -4.693654 -34.538593 2.594245 0.000000 0.000000 0.000000 21.919131 0.102734 -0.476184 56.267482 -0.905885 -6.903097 6.580631 30.041949 3.147164 0.000000 0.000000 0.000000 
-0.000892 0.927185 0.093881 -0.723905 2.438684 0.134330 -1.967485 1.113428 10.387175 -1.247751 0.140377 -0.416550 -1.464580 -6.413127 -5.143899 0.000000 0.000000 0.000000 -0.524186 2.361732 -25.685288 2.768335 -0.147108 14.991754 0.349290 -0.977339 3.973309 0.000000 0.000000 0.000000 4.590373 -0.388949 4.238659 -0.967137 0.547965 -3.459313 -3.974139 2.169462 12.921738 6.911009 -1.706439 -23.420586 0.000000 0.000000 0.000000 -24.410856 -10.022591 2.456543 -44.810163 -5.437130 -3.603373 -5.557367 -36.727202 3.063594 0.000000 0.000000 0.000000 21.720041 0.239288 -0.430896 56.547917 -1.397778 -7.144829 6.849595 29.958625 3.198344 0.000000 0.000000 0.000000 
-0.002701 0.919476 0.131298 -0.576973 2.599859 0.519445 -2.472544 1.349317 12.099607 -0.168605 0.007949 0.287723 -0.862403 -6.590535 -7.463194 0.000000 0.000000 0.000000 -0.164835 2.415125 -25.550430 3.151070 -0.283562 7.745395 0.014120 -2.328645 5.448107 0.000000 0.000000 0.000000 5.152404 -0.353418 3.442719 -1.044971 0.574268 -3.072596 -4.615067 3.145274 12.264715 7.526979 -2.134765 -21.724140 0.000000 0.000000 0.000000 -24.226332 -10.282783 2.162109 -45.494622 -4.138980 -3.935885 -7.761413 -36.912402 3.679565 0.000000 0.000000 0.000000 22.221385 -0.361618 -0.479827 56.622507 -1.347185 -7.115420 6.366326 29.110398 3.032855 0.000000 0.000000 0.000000 
-0.005127 0.912417 0.172193 -0.302895 3.019767 0.654353 -2.722677 1.527307 13.553300 0.494066 -0.164385 2.796173 -0.296333 -6.449090 -9.193704 0.000000 0.000000 0.000000 0.399517 2.514218 -25.604679 3.239367 -0.307344 7.490754 -0.453393 -3.584552 6.145772 0.000000 0.000000 0.000000 5.507125 -0.357120 3.280728 -1.072625 0.578005 -2.569666 -5.038757 3.245587 11.378094 8.124639 -2.429078 -21.593356 0.000000 0.000000 0.000000 -25.779489 -10.196532 1.823135 -44.949612 -2.535432 -4.287052 -8.252233 -36.430452 3.745918 0.000000 0.000000 0.000000 22.030984 0.261858 -0.016590 57.700281 -0.888055 -6.939644 4.075185 28.067836 2.372093 0.000000 0.000000 0.000000 
